<?xml version="1.0" encoding="UTF-8" standalone="no"?>
<!DOCTYPE svg PUBLIC "-//W3C//DTD SVG 1.1//EN" "http://www.w3.org/Graphics/SVG/1.1/DTD/svg11.dtd">
<svg width="100%" height="100%" viewBox="0 0 1880 1692" version="1.1" xmlns="http://www.w3.org/2000/svg" xmlns:xlink="http://www.w3.org/1999/xlink" xml:space="preserve" xmlns:serif="http://www.serif.com/" style="fill-rule:evenodd;clip-rule:evenodd;stroke-linecap:round;stroke-linejoin:round;stroke-miterlimit:1.5;">
    <g transform="matrix(1,0,0,1,-2192.01,0)">
        <g id="dead-server" transform="matrix(0.535845,0,0,0.681916,2192.01,0)">
            <rect x="0" y="0" width="3507.87" height="2480.32" style="fill:none;"/>
            <g transform="matrix(1.73902,0,0,2.40865,-4287.77,1040.71)">
                <path d="M4107.94,335.325C4107.94,325.087 4093.29,316.774 4075.24,316.774L2873.15,316.774C2855.11,316.774 2840.45,325.087 2840.45,335.325L2840.45,537.919C2840.45,548.158 2855.11,556.47 2873.15,556.47L4075.24,556.47C4093.29,556.47 4107.94,548.158 4107.94,537.919L4107.94,335.325Z" style="fill:rgb(237,240,255);stroke:rgb(83,83,83);stroke-width:15.6px;"/>
            </g>
            <g transform="matrix(1.73902,0,0,2.40865,-4287.77,463.37)">
                <path d="M4107.94,335.325C4107.94,325.087 4093.29,316.774 4075.24,316.774L2873.15,316.774C2855.11,316.774 2840.45,325.087 2840.45,335.325L2840.45,537.919C2840.45,548.158 2855.11,556.47 2873.15,556.47L4075.24,556.47C4093.29,556.47 4107.94,548.158 4107.94,537.919L4107.94,335.325Z" style="fill:rgb(237,240,255);stroke:rgb(83,83,83);stroke-width:15.6px;"/>
            </g>
            <g transform="matrix(1.73902,0,0,2.40865,-4287.77,-113.975)">
                <path d="M4107.94,335.325C4107.94,325.087 4093.29,316.774 4075.24,316.774L2873.15,316.774C2855.11,316.774 2840.45,325.087 2840.45,335.325L2840.45,537.919C2840.45,548.158 2855.11,556.47 2873.15,556.47L4075.24,556.47C4093.29,556.47 4107.94,548.158 4107.94,537.919L4107.94,335.325Z" style="fill:rgb(237,240,255);stroke:rgb(83,83,83);stroke-width:15.6px;"/>
            </g>
            <g transform="matrix(1.86621,0,0,1.46646,-3907.6,4.36291)">
                <path d="M2957.24,92.314C2947.53,113.011 2925.05,130.509 2923.12,154.458C2922.04,167.795 2929.42,180.61 2936.68,191.132C2956.56,219.93 2963.34,225.118 2982.59,254.553C2988.2,263.126 2993.45,274.158 2995.26,284.42C3001.71,321.028 2969.12,353.699 2957.24,385.179" style="fill:none;stroke:rgb(234,234,234);stroke-width:20.83px;"/>
            </g>
            <g transform="matrix(1.86621,0,0,1.46646,-3769.22,4.36291)">
                <path d="M2957.24,92.314C2947.53,113.011 2925.05,130.509 2923.12,154.458C2922.04,167.795 2929.42,180.61 2936.68,191.132C2956.56,219.93 2963.34,225.118 2982.59,254.553C2988.2,263.126 2993.45,274.158 2995.26,284.42C3001.71,321.028 2969.12,353.699 2957.24,385.179" style="fill:none;stroke:rgb(234,234,234);stroke-width:20.83px;"/>
            </g>
            <g transform="matrix(1.86621,0,0,1.46646,-3630.84,4.36291)">
                <path d="M2957.24,92.314C2947.53,113.011 2925.05,130.509 2923.12,154.458C2922.04,167.795 2929.42,180.61 2936.68,191.132C2956.56,219.93 2963.34,225.118 2982.59,254.553C2988.2,263.126 2993.45,274.158 2995.26,284.42C3001.71,321.028 2969.12,353.699 2957.24,385.179" style="fill:none;stroke:rgb(234,234,234);stroke-width:20.83px;"/>
            </g>
            <g transform="matrix(1.86621,0,0,1.46646,-3557.74,-18.2918)">
                <circle cx="3254.06" cy="651.903" r="34.958" style="fill:rgb(83,83,83);stroke:rgb(83,83,83);stroke-width:20.83px;"/>
            </g>
            <g transform="matrix(1.86621,0,0,1.46646,-3557.74,559.053)">
                <circle cx="3254.06" cy="651.903" r="34.958" style="fill:rgb(83,83,83);stroke:rgb(83,83,83);stroke-width:20.83px;"/>
            </g>
            <g transform="matrix(1.86621,0,0,1.46646,-3557.74,1136.4)">
                <circle cx="3254.06" cy="651.903" r="34.958" style="fill:rgb(83,83,83);stroke:rgb(83,83,83);stroke-width:20.83px;"/>
            </g>
            <g transform="matrix(1.86621,0,0,1.46646,-3757.62,-18.2918)">
                <circle cx="3254.06" cy="651.903" r="34.958" style="fill:rgb(83,83,83);stroke:rgb(83,83,83);stroke-width:20.83px;"/>
            </g>
            <g transform="matrix(1.86621,0,0,1.46646,-3757.62,559.053)">
                <circle cx="3254.06" cy="651.903" r="34.958" style="fill:rgb(83,83,83);stroke:rgb(83,83,83);stroke-width:20.83px;"/>
            </g>
            <g transform="matrix(1.86621,0,0,1.46646,-3757.62,1136.4)">
                <circle cx="3254.06" cy="651.903" r="34.958" style="fill:rgb(83,83,83);stroke:rgb(83,83,83);stroke-width:20.83px;"/>
            </g>
            <g transform="matrix(1.86621,0,0,1.59175,-4138.51,-95.2338)">
                <path d="M2674.65,544.822C2674.65,535.367 2666.32,527.691 2656.05,527.691C2645.79,527.691 2637.46,535.367 2637.46,544.822L2637.46,753.034C2637.46,762.489 2645.79,770.165 2656.05,770.165C2666.32,770.165 2674.65,762.489 2674.65,753.034L2674.65,544.822Z" style="fill:rgb(83,83,83);stroke:rgb(83,83,83);stroke-width:19.96px;"/>
            </g>
            <g transform="matrix(1.86621,0,0,1.59175,-4138.51,482.111)">
                <path d="M2674.65,544.822C2674.65,535.367 2666.32,527.691 2656.05,527.691C2645.79,527.691 2637.46,535.367 2637.46,544.822L2637.46,753.034C2637.46,762.489 2645.79,770.165 2656.05,770.165C2666.32,770.165 2674.65,762.489 2674.65,753.034L2674.65,544.822Z" style="fill:rgb(83,83,83);stroke:rgb(83,83,83);stroke-width:19.96px;"/>
            </g>
            <g transform="matrix(1.86621,0,0,1.59175,-4138.51,1059.46)">
                <path d="M2674.65,544.822C2674.65,535.367 2666.32,527.691 2656.05,527.691C2645.79,527.691 2637.46,535.367 2637.46,544.822L2637.46,753.034C2637.46,762.489 2645.79,770.165 2656.05,770.165C2666.32,770.165 2674.65,762.489 2674.65,753.034L2674.65,544.822Z" style="fill:rgb(83,83,83);stroke:rgb(83,83,83);stroke-width:19.96px;"/>
            </g>
            <g transform="matrix(1.86621,0,0,1.59175,-4005.18,-95.2338)">
                <path d="M2674.65,544.822C2674.65,535.367 2666.32,527.691 2656.05,527.691C2645.79,527.691 2637.46,535.367 2637.46,544.822L2637.46,753.034C2637.46,762.489 2645.79,770.165 2656.05,770.165C2666.32,770.165 2674.65,762.489 2674.65,753.034L2674.65,544.822Z" style="fill:rgb(83,83,83);stroke:rgb(83,83,83);stroke-width:19.96px;"/>
            </g>
            <g transform="matrix(1.86621,0,0,1.59175,-4005.18,482.111)">
                <path d="M2674.65,544.822C2674.65,535.367 2666.32,527.691 2656.05,527.691C2645.79,527.691 2637.46,535.367 2637.46,544.822L2637.46,753.034C2637.46,762.489 2645.79,770.165 2656.05,770.165C2666.32,770.165 2674.65,762.489 2674.65,753.034L2674.65,544.822Z" style="fill:rgb(83,83,83);stroke:rgb(83,83,83);stroke-width:19.96px;"/>
            </g>
            <g transform="matrix(1.86621,0,0,1.59175,-4005.18,1059.46)">
                <path d="M2674.65,544.822C2674.65,535.367 2666.32,527.691 2656.05,527.691C2645.79,527.691 2637.46,535.367 2637.46,544.822L2637.46,753.034C2637.46,762.489 2645.79,770.165 2656.05,770.165C2666.32,770.165 2674.65,762.489 2674.65,753.034L2674.65,544.822Z" style="fill:rgb(83,83,83);stroke:rgb(83,83,83);stroke-width:19.96px;"/>
            </g>
            <g transform="matrix(1.86621,0,0,1.59175,-3871.86,-95.2338)">
                <path d="M2674.65,544.822C2674.65,535.367 2666.32,527.691 2656.05,527.691C2645.79,527.691 2637.46,535.367 2637.46,544.822L2637.46,753.034C2637.46,762.489 2645.79,770.165 2656.05,770.165C2666.32,770.165 2674.65,762.489 2674.65,753.034L2674.65,544.822Z" style="fill:rgb(83,83,83);stroke:rgb(83,83,83);stroke-width:19.96px;"/>
            </g>
            <g transform="matrix(1.86621,0,0,1.59175,-3871.86,482.111)">
                <path d="M2674.65,544.822C2674.65,535.367 2666.32,527.691 2656.05,527.691C2645.79,527.691 2637.46,535.367 2637.46,544.822L2637.46,753.034C2637.46,762.489 2645.79,770.165 2656.05,770.165C2666.32,770.165 2674.65,762.489 2674.65,753.034L2674.65,544.822Z" style="fill:rgb(83,83,83);stroke:rgb(83,83,83);stroke-width:19.96px;"/>
            </g>
            <g transform="matrix(1.86621,0,0,1.59175,-3871.86,1059.46)">
                <path d="M2674.65,544.822C2674.65,535.367 2666.32,527.691 2656.05,527.691C2645.79,527.691 2637.46,535.367 2637.46,544.822L2637.46,753.034C2637.46,762.489 2645.79,770.165 2656.05,770.165C2666.32,770.165 2674.65,762.489 2674.65,753.034L2674.65,544.822Z" style="fill:rgb(83,83,83);stroke:rgb(83,83,83);stroke-width:19.96px;"/>
            </g>
            <g transform="matrix(1.86621,0,0,1.59175,-3738.53,-95.2338)">
                <path d="M2674.65,544.822C2674.65,535.367 2666.32,527.691 2656.05,527.691C2645.79,527.691 2637.46,535.367 2637.46,544.822L2637.46,753.034C2637.46,762.489 2645.79,770.165 2656.05,770.165C2666.32,770.165 2674.65,762.489 2674.65,753.034L2674.65,544.822Z" style="fill:rgb(83,83,83);stroke:rgb(83,83,83);stroke-width:19.96px;"/>
            </g>
            <g transform="matrix(1.86621,0,0,1.59175,-3738.53,482.111)">
                <path d="M2674.65,544.822C2674.65,535.367 2666.32,527.691 2656.05,527.691C2645.79,527.691 2637.46,535.367 2637.46,544.822L2637.46,753.034C2637.46,762.489 2645.79,770.165 2656.05,770.165C2666.32,770.165 2674.65,762.489 2674.65,753.034L2674.65,544.822Z" style="fill:rgb(83,83,83);stroke:rgb(83,83,83);stroke-width:19.96px;"/>
            </g>
            <g transform="matrix(1.86621,0,0,1.59175,-3738.53,1059.46)">
                <path d="M2674.65,544.822C2674.65,535.367 2666.32,527.691 2656.05,527.691C2645.79,527.691 2637.46,535.367 2637.46,544.822L2637.46,753.034C2637.46,762.489 2645.79,770.165 2656.05,770.165C2666.32,770.165 2674.65,762.489 2674.65,753.034L2674.65,544.822Z" style="fill:rgb(83,83,83);stroke:rgb(83,83,83);stroke-width:19.96px;"/>
            </g>
            <g transform="matrix(1.86621,0,0,1.59175,-3605.21,-95.2338)">
                <path d="M2674.65,544.822C2674.65,535.367 2666.32,527.691 2656.05,527.691C2645.79,527.691 2637.46,535.367 2637.46,544.822L2637.46,753.034C2637.46,762.489 2645.79,770.165 2656.05,770.165C2666.32,770.165 2674.65,762.489 2674.65,753.034L2674.65,544.822Z" style="fill:rgb(83,83,83);stroke:rgb(83,83,83);stroke-width:19.96px;"/>
            </g>
            <g transform="matrix(1.86621,0,0,1.59175,-3605.21,482.111)">
                <path d="M2674.65,544.822C2674.65,535.367 2666.32,527.691 2656.05,527.691C2645.79,527.691 2637.46,535.367 2637.46,544.822L2637.46,753.034C2637.46,762.489 2645.79,770.165 2656.05,770.165C2666.32,770.165 2674.65,762.489 2674.65,753.034L2674.65,544.822Z" style="fill:rgb(83,83,83);stroke:rgb(83,83,83);stroke-width:19.96px;"/>
            </g>
            <g transform="matrix(1.86621,0,0,1.59175,-3605.21,1059.46)">
                <path d="M2674.65,544.822C2674.65,535.367 2666.32,527.691 2656.05,527.691C2645.79,527.691 2637.46,535.367 2637.46,544.822L2637.46,753.034C2637.46,762.489 2645.79,770.165 2656.05,770.165C2666.32,770.165 2674.65,762.489 2674.65,753.034L2674.65,544.822Z" style="fill:rgb(83,83,83);stroke:rgb(83,83,83);stroke-width:19.96px;"/>
            </g>
        </g>
    </g>
</svg>
