<?xml version="1.0" encoding="UTF-8" standalone="no"?>
<!DOCTYPE svg PUBLIC "-//W3C//DTD SVG 1.1//EN" "http://www.w3.org/Graphics/SVG/1.1/DTD/svg11.dtd">
<svg width="100%" height="100%" viewBox="0 0 2629 1188" version="1.1" xmlns="http://www.w3.org/2000/svg" xmlns:xlink="http://www.w3.org/1999/xlink" xml:space="preserve" xmlns:serif="http://www.serif.com/" style="fill-rule:evenodd;clip-rule:evenodd;stroke-linejoin:round;stroke-miterlimit:2;">
    <g id="Artboard1" transform="matrix(0.749273,0,0,0.478902,0,0)">
        <rect x="0" y="0" width="3507.87" height="2480.32" style="fill:none;"/>
        <g transform="matrix(1.81732,0,0,2.84332,-422.286,-4134.4)">
            <path d="M1047.14,1511.75L290.18,1511.75L290.18,2268.71L1047.14,2268.71L1047.14,1511.75ZM299.36,1520.93L299.36,2259.53L1037.97,2259.53L1037.97,1520.93L299.36,1520.93Z" style="fill:white;"/>
        </g>
        <g transform="matrix(1.33463,0,0,2.08811,-1641.66,1462.47)">
            <g transform="matrix(517.72,0,0,517.72,1678.53,296.84)">
                <path d="M0.963,-0.705L1.086,-0.705L0.837,-0L0.732,-0L0.555,-0.507L0.377,-0L0.272,-0L0.024,-0.705L0.154,-0.705L0.329,-0.18L0.513,-0.705L0.604,-0.705L0.783,-0.177L0.963,-0.705Z" style="fill:white;fill-rule:nonzero;"/>
            </g>
            <g transform="matrix(517.72,0,0,517.72,2393.5,296.84)">
                <path d="M0.39,0.009C0.321,0.009 0.262,-0.006 0.212,-0.035C0.161,-0.064 0.122,-0.106 0.095,-0.161C0.068,-0.216 0.054,-0.28 0.054,-0.353C0.054,-0.426 0.068,-0.49 0.095,-0.545C0.122,-0.599 0.16,-0.641 0.211,-0.67C0.262,-0.699 0.321,-0.714 0.39,-0.714C0.459,-0.714 0.518,-0.699 0.569,-0.67C0.619,-0.641 0.658,-0.599 0.685,-0.545C0.712,-0.49 0.725,-0.426 0.725,-0.353C0.725,-0.28 0.711,-0.216 0.684,-0.161C0.657,-0.106 0.618,-0.064 0.568,-0.035C0.517,-0.006 0.458,0.009 0.39,0.009ZM0.39,-0.094C0.455,-0.094 0.505,-0.116 0.542,-0.161C0.578,-0.206 0.596,-0.27 0.596,-0.353C0.596,-0.436 0.578,-0.5 0.542,-0.545C0.505,-0.589 0.455,-0.611 0.39,-0.611C0.325,-0.611 0.274,-0.589 0.237,-0.545C0.201,-0.5 0.183,-0.436 0.183,-0.353C0.183,-0.27 0.201,-0.206 0.237,-0.161C0.274,-0.116 0.325,-0.094 0.39,-0.094Z" style="fill:white;fill-rule:nonzero;"/>
            </g>
            <g transform="matrix(517.72,0,0,517.72,2937.11,296.84)">
                <path d="M0.242,-0L0.242,-0.599L0.012,-0.599L0.012,-0.705L0.601,-0.705L0.601,-0.599L0.371,-0.599L0.371,-0L0.242,-0Z" style="fill:white;fill-rule:nonzero;"/>
            </g>
            <g transform="matrix(517.72,0,0,517.72,3394.77,296.84)">
                <path d="M0.615,-0L0.544,-0.165L0.201,-0.165L0.13,-0L0,-0L0.319,-0.705L0.424,-0.705L0.743,-0L0.615,-0ZM0.243,-0.265L0.501,-0.265L0.372,-0.565L0.243,-0.265Z" style="fill:white;fill-rule:nonzero;"/>
            </g>
        </g>
    </g>
</svg>
