<?xml version="1.0" encoding="UTF-8" standalone="no"?>
<!DOCTYPE svg PUBLIC "-//W3C//DTD SVG 1.1//EN" "http://www.w3.org/Graphics/SVG/1.1/DTD/svg11.dtd">
<svg width="100%" height="100%" viewBox="0 0 1182 1182" version="1.1" xmlns="http://www.w3.org/2000/svg" xmlns:xlink="http://www.w3.org/1999/xlink" xml:space="preserve" xmlns:serif="http://www.serif.com/" style="fill-rule:evenodd;clip-rule:evenodd;stroke-linejoin:round;stroke-miterlimit:2;">
    <g transform="matrix(1,0,0,1,0,-1249.54)">
        <g id="Small" transform="matrix(0.3367,0,0,0.47619,0,1249.54)">
            <rect x="0" y="0" width="3507.87" height="2480.32" style="fill:none;"/>
            <g transform="matrix(4.04416,0,0,2.85951,-939.73,-4157.94)">
                <path d="M1047.14,1511.75L290.18,1511.75L290.18,2268.71L1047.14,2268.71L1047.14,1511.75ZM299.36,1520.93L299.36,2259.53L1037.97,2259.53L1037.97,1520.93L299.36,1520.93Z" style="fill:white;"/>
            </g>
            <g transform="matrix(1537.63,0,0,1087.21,1331.98,2094.17)">
                <path d="M0.963,-0.705L1.086,-0.705L0.837,-0L0.732,-0L0.555,-0.507L0.377,-0L0.272,-0L0.024,-0.705L0.154,-0.705L0.329,-0.18L0.513,-0.705L0.604,-0.705L0.783,-0.177L0.963,-0.705Z" style="fill:white;fill-rule:nonzero;"/>
            </g>
        </g>
    </g>
</svg>
